<?xml version="1.0" encoding="UTF-8"?>
<svg version="1.1" xmlns="http://www.w3.org/2000/svg" width="376" height="345">
<path d="M0 0 C3.79998729 1.77453243 6.23094947 3.98337512 9.20825195 6.96533203 C9.71453125 7.46971298 10.22081055 7.97409393 10.74243164 8.49375916 C12.41263833 10.16026611 14.07553983 11.83385963 15.73828125 13.5078125 C16.90370266 14.67442717 18.06949524 15.84067115 19.23564148 17.00656128 C21.68063234 19.45311608 24.12222969 21.90299113 26.5612793 24.35546875 C29.66952088 27.48061506 32.78421836 30.59922437 35.90130329 33.71554756 C38.31155843 36.12607644 40.71918421 38.53921735 43.12596703 40.95321274 C44.27230306 42.10270642 45.41922411 43.25161702 46.56676674 44.39990616 C51.97669082 49.81719948 57.30573536 55.24545515 62.28678894 61.06564331 C65.80904359 65.04255952 69.63267136 68.73250661 73.40625 72.46875 C74.28978149 73.34849487 75.17331299 74.22823975 76.08361816 75.13464355 C78.88665133 77.92554506 81.69279916 80.71329232 84.5 83.5 C88.2010055 87.17398738 91.89831822 90.85165602 95.59375 94.53125 C96.43248657 95.36168823 97.27122314 96.19212646 98.13537598 97.04772949 C102.33866476 101.23361335 106.35058425 105.49625364 110.21765137 109.99279785 C113.63135318 113.83715775 117.31566254 117.41629459 120.96875 121.03125 C121.8078894 121.86660278 122.64702881 122.70195557 123.51159668 123.56262207 C126.171969 126.21087086 128.83556013 128.85584406 131.5 131.5 C135.01337273 134.98662601 138.52331971 138.47664926 142.03125 141.96875 C142.82623901 142.75544067 143.62122803 143.54213135 144.44030762 144.35266113 C145.19799438 145.10704468 145.95568115 145.86142822 146.73632812 146.63867188 C147.39250122 147.28960815 148.04867432 147.94054443 148.72473145 148.61120605 C151 151 151 151 152.21128178 153.01747131 C154.85417561 156.96739021 156.7835263 158.7453951 161.52068138 159.73686981 C166.14641193 160.13400191 170.77190143 160.05596813 175.40991211 160 C177.19419105 160.00761073 178.97845795 160.01873349 180.76269531 160.03309631 C185.59522268 160.06207622 190.4264423 160.04202016 195.25892329 160.0130806 C200.31319936 159.99117744 205.36726338 160.01447783 210.42152405 160.03295898 C219.9873157 160.06108092 229.55260572 160.04861927 239.11838299 160.02153492 C250.01079129 159.99267347 260.90298426 160.00911814 271.79539478 160.02934647 C294.19705372 160.06993478 316.59838267 160.05369899 339 160 C336.15929373 165.91851925 331.38423909 169.84979316 326.4375 174.0625 C322.42258281 177.51392004 318.72134109 181.23940426 315 185 C310.83354774 189.21012576 306.64714573 193.27241232 302.12109375 197.09765625 C299.12860779 199.78152487 296.32566741 202.64234089 293.5 205.5 C290.10993619 208.92844551 286.74806043 212.32260699 283.0625 215.4375 C279.15730044 218.74572637 275.59718832 222.36513493 272 226 C267.83353306 230.21010629 263.64714598 234.2724121 259.12109375 238.09765625 C255.52262539 241.32501185 252.1747647 244.80624973 248.77709961 248.24243164 C245.35944185 251.68388165 241.85721791 254.92608651 238.15625 258.0625 C235.15385317 260.76030585 232.33739183 263.63043819 229.5 266.5 C225.51223169 270.5329811 221.48505095 274.39402462 217.15625 278.0625 C213.54914646 281.3036655 210.18821105 284.79262379 206.77954102 288.23999023 C203.33963479 291.70386446 199.8144615 294.97124934 196.08984375 298.12890625 C192.72811889 301.13874963 189.60032425 304.37976193 186.43041992 307.58911133 C183.03915035 311.00619047 179.54445677 314.22471174 175.875 317.34375 C173.06400761 319.82679328 170.46698854 322.50930936 167.859375 325.203125 C163.51031134 329.40600164 160.70939534 330.43724498 154.64752197 330.36076355 C153.9049813 330.36332682 153.16244062 330.3658901 152.39739871 330.36853105 C149.90826654 330.37347409 147.41974039 330.35696784 144.93066406 330.34057617 C143.14684565 330.33973001 141.36302618 330.34020483 139.57920837 330.34190369 C134.73446713 330.34276549 129.88994807 330.32510972 125.04525852 330.30418181 C119.98304428 330.28544591 114.92082511 330.28366701 109.85858154 330.28010559 C100.2715632 330.27077605 90.68464732 330.24614995 81.09767413 330.21605712 C70.18365593 330.18254141 59.26963288 330.16603422 48.35557604 330.15097082 C25.90366053 330.11960121 3.451836 330.06682302 -19 330 C-17.43388545 326.70184188 -15.7486877 324.50279528 -13.1484375 321.91796875 C-11.99408203 320.76651367 -11.99408203 320.76651367 -10.81640625 319.59179688 C-10.01074219 318.79837891 -9.20507812 318.00496094 -8.375 317.1875 C-7.59253906 316.40568359 -6.81007813 315.62386719 -6.00390625 314.81835938 C-1.76921363 310.61526894 2.55979425 306.59717289 7.07958984 302.7043457 C10.36863127 299.7853528 13.42244397 296.63861706 16.5 293.5 C20.86372895 289.08914771 25.23440974 284.80236042 29.98046875 280.80078125 C33.32646639 277.81721276 36.42943757 274.58999107 39.57885742 271.40161133 C42.88631764 268.06908273 46.29674433 264.94776732 49.875 261.90625 C53.24007808 258.88757702 56.37615721 255.64428134 59.55175781 252.42871094 C63.53505198 248.41483485 67.67749157 244.64702779 72 241 C66.43312161 234.27824246 60.2914864 228.2329006 54.07617188 222.11523438 C53.26857422 221.31537109 52.46097656 220.51550781 51.62890625 219.69140625 C50.90775635 218.98185791 50.18660645 218.27230957 49.44360352 217.54125977 C47.47545149 215.49445245 45.61909945 213.41887058 43.76855469 211.26855469 C39.74410567 206.63587286 35.43463077 202.32625836 31.07421875 198.01171875 C30.24541702 197.18670364 29.4166153 196.36168854 28.56269836 195.51167297 C25.94006131 192.9011585 23.31419254 190.29393341 20.6875 187.6875 C17.20937816 184.23593595 13.73455687 180.78109809 10.26171875 177.32421875 C9.46279709 176.53359543 8.66387543 175.74297211 7.84074402 174.9283905 C7.10270035 174.19365005 6.36465668 173.45890961 5.60424805 172.7019043 C4.95473679 172.05762985 4.30522552 171.41335541 3.6360321 170.7495575 C0.01719419 166.87960593 -0.24831585 164.50925001 -0.24050903 159.3372345 C-0.24221788 158.65680153 -0.24392673 157.97636856 -0.24568737 157.27531642 C-0.24898718 154.99048538 -0.23797068 152.70594665 -0.22705078 150.42114258 C-0.22648677 148.78525296 -0.22680302 147.14936283 -0.22793579 145.51347351 C-0.22851071 141.0674678 -0.21673392 136.62156954 -0.20278788 132.17558885 C-0.19030367 127.53110181 -0.18911184 122.88661243 -0.18673706 118.24211121 C-0.18051549 109.44486103 -0.16409552 100.64766042 -0.14403808 91.8504321 C-0.12170013 81.83604974 -0.11069095 71.82166503 -0.10064721 61.80726397 C-0.07972988 41.20481495 -0.04454075 20.6024106 0 0 Z " fill="#C15075" transform="translate(27,8)"/>
</svg>
